# xmcd
#
# Track frame offsets: 
#        150
#        18217
#        41768
#        63260
#        94888
#        111567
#        131951
#        154958
#        174188
#        195330
#        217959
#        245059
#        264928
#        285387
#        314245
#
# Disc length: 4551 seconds
#
# Revision: 0
# Processed by: cddbd v1.5.2PL0 Copyright (c) Steve Scherf et al.
# Submitted via: ExactAudioCopy v1.0b3
#
DISCID=da11c50f
DTITLE=松山千春 - 35th Anniversary 松山千春の世界 Chiharu Matsuyama Selection dis
DTITLE=k4
DYEAR=2012
DGENRE=JPop
TTITLE0=道
TTITLE1=宇宙のはるか
TTITLE2=風光る
TTITLE3=時流
TTITLE4=human
TTITLE5=北風の子守唄
TTITLE6=兵士の詩
TTITLE7=一輪の花
TTITLE8=オロオロ
TTITLE9=祈り
TTITLE10=激情
TTITLE11=ひき潮（アルバムVer.）
TTITLE12=決意
TTITLE13=崩壊
TTITLE14=我家
EXTD=
EXTT0=
EXTT1=
EXTT2=
EXTT3=
EXTT4=
EXTT5=
EXTT6=
EXTT7=
EXTT8=
EXTT9=
EXTT10=
EXTT11=
EXTT12=
EXTT13=
EXTT14=
PLAYORDER=
